<?xml version="1.0" standalone="no"?>
<!DOCTYPE svg PUBLIC "-//W3C//DTD SVG 20010904//EN"
 "http://www.w3.org/TR/2001/REC-SVG-20010904/DTD/svg10.dtd">
<svg version="1.0" xmlns="http://www.w3.org/2000/svg"
 width="516.000000pt" height="355.000000pt" viewBox="0 0 516.000000 355.000000"
 preserveAspectRatio="xMidYMid meet">

<g transform="translate(0.000000,355.000000) scale(0.100000,-0.100000)"
fill="#000000" stroke="none">
<path d="M0 1775 l0 -1775 2580 0 2580 0 0 1775 0 1775 -2580 0 -2580 0 0
-1775z m3012 1485 c43 -33 61 -94 63 -203 2 -72 6 -102 18 -115 9 -9 20 -30
26 -45 15 -38 -10 -91 -50 -107 -16 -7 -29 -20 -29 -30 0 -14 14 -18 83 -24
228 -19 378 -82 407 -171 33 -101 -124 -229 -382 -310 -32 -10 -58 -21 -58
-26 0 -4 20 -60 45 -124 62 -156 82 -260 67 -333 -27 -130 -117 -143 -293 -42
-72 41 -91 48 -120 44 -50 -8 -90 27 -98 86 -3 24 -11 45 -18 47 -6 2 -26 -17
-44 -43 -61 -88 -149 -183 -215 -230 -54 -38 -76 -48 -118 -52 -108 -9 -142
63 -133 277 4 75 13 162 21 194 17 67 22 63 -83 71 -164 14 -305 58 -363 113
-33 31 -45 82 -29 122 17 39 84 101 159 146 35 20 66 45 69 54 23 74 86 104
140 66 14 -10 32 -13 48 -9 14 3 25 7 25 9 0 1 -16 36 -35 77 -52 114 -87 241
-88 328 -2 124 35 166 136 158 87 -7 206 -77 362 -211 l41 -35 59 79 c112 152
249 259 331 259 17 0 43 -9 56 -20z m-1243 -1979 c71 -37 44 -65 -30 -32 -131
60 -272 -30 -272 -174 0 -53 26 -117 59 -146 62 -54 152 -66 225 -29 34 18 43
19 50 8 14 -21 11 -25 -37 -49 -55 -26 -140 -29 -194 -7 -111 47 -172 170
-140 283 13 46 75 126 114 147 61 33 159 32 225 -1z m482 19 c47 -13 115 -72
141 -124 31 -60 30 -156 -2 -216 -92 -165 -332 -164 -414 2 -94 189 72 394
275 338z m499 -180 l145 -163 3 171 2 172 25 0 25 0 0 -237 c-1 -226 -2 -237
-18 -218 -9 12 -82 95 -162 185 l-145 164 -3 -177 c-2 -169 -3 -177 -22 -177
-19 0 -20 7 -20 238 1 188 3 234 13 221 7 -8 77 -89 157 -179z m1683 162 c44
-19 47 -23 37 -42 l-11 -21 -33 20 c-126 78 -295 -15 -296 -162 -1 -152 174
-252 299 -170 21 13 25 13 39 0 13 -14 11 -18 -19 -36 -82 -51 -164 -50 -251
3 -134 80 -148 280 -26 378 75 61 168 72 261 30z m-3874 3 c16 -8 31 -22 35
-30 11 -30 6 -78 -10 -96 -15 -17 -14 -20 16 -46 82 -68 79 -194 -7 -250 -21
-14 -53 -19 -150 -22 l-123 -3 0 231 0 231 105 0 c74 0 115 -5 134 -15z m301
-215 l0 -230 -25 0 -25 0 0 230 0 230 25 0 25 0 0 -230z m325 26 c-58 -111
-105 -206 -105 -210 0 -3 45 -6 100 -6 93 0 100 -1 100 -20 0 -19 -7 -20 -135
-20 -74 0 -135 2 -135 5 0 3 48 97 106 210 l106 205 -101 0 c-94 0 -101 1
-101 20 0 19 7 20 135 20 l136 0 -106 -204z m2112 27 l148 -166 3 171 2 172
25 0 25 0 0 -230 c0 -126 -3 -230 -7 -230 -5 0 -78 79 -163 176 l-155 175 -3
-175 c-2 -168 -3 -176 -22 -176 -19 0 -20 8 -20 231 0 145 4 228 10 224 5 -3
76 -81 157 -172z m643 157 c0 -19 -7 -20 -110 -20 l-110 0 0 -65 0 -65 80 0
c73 0 80 -2 80 -20 0 -18 -7 -20 -80 -20 l-80 0 0 -105 0 -105 115 0 c109 0
115 -1 115 -20 0 -20 -5 -20 -135 -18 l-136 3 0 220 c-1 121 -1 223 0 228 1 4
60 7 131 7 123 0 130 -1 130 -20z m970 0 c0 -17 -8 -19 -67 -22 l-68 -3 -1
-200 c-1 -110 -2 -203 -3 -207 0 -5 -10 -8 -21 -8 -19 0 -20 7 -20 210 l0 210
-70 0 c-63 0 -70 2 -70 20 0 19 7 20 160 20 152 0 160 -1 160 -20z m-3880
-834 c0 -3 -4 -8 -10 -11 -5 -3 -10 -1 -10 4 0 6 5 11 10 11 6 0 10 -2 10 -4z
m941 -23 c-12 -20 -14 -14 -5 12 4 9 9 14 11 11 3 -2 0 -13 -6 -23z m734 -3
c-16 -16 -31 -27 -34 -24 -3 4 0 9 7 11 6 3 9 10 6 15 -4 6 -2 8 3 5 6 -4 16
0 23 8 7 8 15 15 18 15 3 0 -7 -13 -23 -30z m-1195 1 c0 -5 -7 -12 -16 -15
-14 -5 -15 -4 -4 9 14 17 20 19 20 6z m630 5 c0 -2 -8 -10 -17 -17 -16 -13
-17 -12 -4 4 13 16 21 21 21 13z m50 0 c0 -2 -7 -9 -15 -16 -13 -11 -14 -10
-9 4 5 14 24 23 24 12z m57 -14 c-10 -10 -14 -22 -10 -27 5 -4 2 -5 -5 -1 -11
6 -10 12 4 27 9 10 19 19 22 19 3 0 -2 -8 -11 -18z m43 4 c0 -8 -7 -16 -15
-20 -12 -4 -13 -2 -2 14 14 24 17 25 17 6z m67 -1 c0 -8 -4 -15 -9 -15 -10 0
-11 14 -1 23 9 10 10 9 10 -8z m606 0 c-3 -9 -8 -14 -10 -11 -3 3 -2 9 2 15 9
16 15 13 8 -4z m830 0 c-3 -9 -8 -14 -10 -11 -3 3 -2 9 2 15 9 16 15 13 8 -4z
m87 11 c0 -2 -8 -10 -17 -17 -16 -13 -17 -12 -4 4 13 16 21 21 21 13z m270 -6
c0 -5 -5 -10 -11 -10 -5 0 -7 5 -4 10 3 6 8 10 11 10 2 0 4 -4 4 -10z m174 -4
c-3 -8 -13 -17 -22 -21 -13 -5 -13 -2 3 15 21 24 26 25 19 6z m-294 -5 c0 -5
-7 -12 -16 -15 -14 -5 -15 -4 -4 9 14 17 20 19 20 6z m-2255 -19 c-3 -3 -11 0
-18 7 -9 10 -8 11 6 5 10 -3 15 -9 12 -12z m1360 -2 c3 -5 1 -10 -4 -10 -6 0
-11 5 -11 10 0 6 2 10 4 10 3 0 8 -4 11 -10z m1211 -37 c-8 -15 -15 -22 -16
-15 0 14 22 53 28 47 2 -2 -3 -16 -12 -32z m-2066 12 c-7 -9 -15 -13 -17 -11
-7 7 7 26 19 26 6 0 6 -6 -2 -15z"/>
<path d="M2901 3238 c-55 -27 -161 -137 -232 -240 -32 -47 -59 -91 -59 -97 0
-12 115 -142 136 -154 8 -5 61 -5 119 -1 99 6 104 8 110 31 4 16 -1 32 -15 50
-11 14 -20 34 -20 44 0 32 23 70 50 84 24 13 28 21 33 86 3 39 2 94 -4 122
-16 85 -52 108 -118 75z"/>
<path d="M2098 3158 c-21 -16 -38 -60 -38 -97 0 -66 125 -396 154 -407 6 -2
54 6 106 19 l95 22 48 80 c26 44 50 89 53 101 4 16 -11 36 -68 92 -158 153
-299 230 -350 190z"/>
<path d="M2557 2818 c-33 -55 -58 -101 -55 -104 2 -2 33 1 68 6 36 5 71 10 78
10 20 0 14 12 -33 63 l-44 48 -14 -23z"/>
<path d="M2806 2668 c24 -40 86 -118 94 -118 5 0 13 15 19 33 5 17 14 47 20
65 l10 32 -75 0 c-58 0 -73 -3 -68 -12z"/>
<path d="M2982 2582 c-18 -54 -32 -104 -32 -111 0 -12 65 -127 92 -165 14 -17
19 -17 132 23 279 97 383 191 296 265 -57 47 -232 86 -390 86 l-66 0 -32 -98z"/>
<path d="M2580 2654 c-52 -7 -99 -13 -103 -13 -9 -1 -93 -178 -103 -216 -5
-19 9 -45 68 -124 83 -115 66 -109 237 -88 l94 12 48 110 c27 61 48 115 49
120 0 6 -34 57 -75 113 -58 79 -80 102 -97 101 -13 -1 -66 -7 -118 -15z m93
-88 c18 -7 43 -26 57 -41 22 -23 25 -36 25 -97 0 -69 -1 -71 -38 -103 -21 -18
-52 -35 -69 -39 -45 -9 -108 11 -139 46 -106 112 22 295 164 234z"/>
<path d="M2303 2607 c-23 -7 -44 -15 -48 -18 -3 -4 8 -30 26 -59 17 -28 35
-48 39 -43 5 4 20 36 33 71 29 70 28 70 -50 49z"/>
<path d="M2155 2573 c-29 -7 -45 -23 -45 -43 0 -44 -71 -70 -124 -45 l-35 17
-80 -42 c-258 -134 -155 -248 249 -276 l95 -7 33 100 c17 54 32 106 32 115 0
14 -97 190 -103 187 -1 -1 -11 -4 -22 -6z"/>
<path d="M2890 2333 c-11 -26 -23 -57 -26 -69 -6 -22 -5 -22 51 -9 31 8 59 16
62 19 6 6 -49 106 -59 106 -4 0 -16 -21 -28 -47z"/>
<path d="M2325 2308 c-3 -7 -14 -39 -24 -70 l-20 -58 47 1 c26 1 60 4 75 8
l28 6 -46 63 c-26 34 -49 62 -51 62 -3 0 -7 -6 -9 -12z"/>
<path d="M2892 2187 l-83 -22 -49 -89 c-60 -108 -59 -126 8 -126 67 -1 102
-34 102 -99 0 -22 9 -37 38 -61 49 -41 152 -90 189 -90 102 0 87 181 -36 430
-44 88 -46 89 -169 57z"/>
<path d="M2640 2143 c-75 -6 -76 -8 -30 -63 23 -28 45 -50 48 -50 6 0 56 82
70 113 2 4 -7 6 -20 5 -12 -1 -43 -3 -68 -5z"/>
<path d="M2261 2102 c-20 -38 -53 -230 -54 -317 -2 -105 12 -148 54 -165 24
-10 35 -9 73 10 68 32 192 174 271 307 l19 32 -68 75 -68 76 -109 0 c-95 0
-110 -2 -118 -18z"/>
<path d="M2115 1256 c-67 -25 -125 -108 -125 -181 0 -70 56 -156 117 -181 45
-19 110 -17 159 5 74 34 111 105 101 199 -13 121 -138 199 -252 158z"/>
<path d="M363 1222 c-5 -73 1 -82 60 -82 61 0 117 14 129 32 15 24 9 67 -11
78 -11 5 -55 10 -98 10 l-78 0 -2 -38z"/>
<path d="M367 1058 c-3 -29 -4 -80 -3 -113 l1 -60 80 -3 c104 -3 144 15 163
74 10 33 10 47 0 79 -19 55 -62 75 -159 75 l-77 0 -5 -52z"/>
</g>
</svg>
